<?xml version="1.0" encoding="utf-8"?>
<!-- Generator: Adobe Illustrator 25.0.0, SVG Export Plug-In . SVG Version: 6.00 Build 0)  -->
<svg version="1.1" id="Layer_2" xmlns="http://www.w3.org/2000/svg" xmlns:xlink="http://www.w3.org/1999/xlink" x="0px" y="0px"
	 viewBox="0 0 338.07 69.2" style="enable-background:new 0 0 338.07 69.2;" xml:space="preserve">
<style type="text/css">
	.st0{fill:#F7EDE1;}
	.st1{fill:#FA9B12;}
	.st2{fill:#155942;}
	.st3{fill:#BF3110;}
	.st4{fill:#155942;stroke:#000000;stroke-width:2;stroke-miterlimit:10;stroke-dasharray:2.909;}
	.st5{fill:none;stroke:#000000;stroke-width:1.256;stroke-miterlimit:10;}
	.st6{clip-path:url(#SVGID_2_);}
	.st7{clip-path:url(#SVGID_4_);fill:#FA9B12;}
	.st8{clip-path:url(#SVGID_4_);}
	.st9{fill:#F7F0E5;}
	.st10{clip-path:url(#SVGID_6_);fill:#FA9B12;}
	.st11{clip-path:url(#SVGID_6_);}
	.st12{clip-path:url(#SVGID_8_);fill:#FA9B12;}
	.st13{clip-path:url(#SVGID_8_);}
	.st14{clip-path:url(#SVGID_10_);fill:#FA9B12;}
	.st15{clip-path:url(#SVGID_10_);}
	.st16{clip-path:url(#SVGID_12_);fill:#FA9B12;}
	.st17{clip-path:url(#SVGID_12_);}
	.st18{fill:#1E1E1E;}
	.st19{clip-path:url(#SVGID_14_);fill:#FA9B12;}
	.st20{clip-path:url(#SVGID_14_);}
	.st21{clip-path:url(#SVGID_16_);fill:#FA9B12;}
	.st22{clip-path:url(#SVGID_16_);}
	.st23{clip-path:url(#SVGID_18_);fill:#FA9B12;}
	.st24{clip-path:url(#SVGID_18_);}
	.st25{clip-path:url(#SVGID_20_);}
	.st26{clip-path:url(#SVGID_20_);fill:#FA9B12;}
	.st27{clip-path:url(#SVGID_22_);fill:#FA9B12;}
	.st28{clip-path:url(#SVGID_22_);}
	.st29{fill:#E5880C;}
	.st30{clip-path:url(#SVGID_24_);fill:#F6EEE1;}
	.st31{clip-path:url(#SVGID_24_);}
	.st32{fill:#306C58;}
	.st33{clip-path:url(#SVGID_24_);fill:none;}
	.st34{clip-path:url(#SVGID_26_);fill:#FA9B12;}
	.st35{clip-path:url(#SVGID_26_);}
	.st36{fill:#A34433;}
	.st37{clip-path:url(#SVGID_28_);}
	.st38{clip-path:url(#SVGID_30_);fill:#155942;}
	.st39{clip-path:url(#SVGID_30_);}
	.st40{fill:none;stroke:#155942;stroke-width:4;stroke-miterlimit:10;}
	.st41{fill:#F7EDE1;stroke:#F7EDE1;stroke-width:10;stroke-miterlimit:10;}
	.st42{fill:#F7EDE1;stroke:#F7EDE1;stroke-width:2;stroke-miterlimit:10;}
	.st43{fill:none;stroke:#F7EDE1;stroke-width:2;stroke-miterlimit:10;}
	.st44{clip-path:url(#SVGID_32_);fill:#BF3110;}
	.st45{clip-path:url(#SVGID_32_);}
	.st46{fill:#6C1D17;}
	.st47{fill:#892E25;}
	.st48{clip-path:url(#SVGID_34_);}
	.st49{clip-path:url(#SVGID_36_);fill:#F6EEE1;}
	.st50{fill:#962C18;}
	.st51{clip-path:url(#SVGID_38_);}
	.st52{clip-path:url(#SVGID_40_);fill:#F6EEE1;}
	.st53{clip-path:url(#SVGID_42_);fill:#962C18;}
	.st54{clip-path:url(#SVGID_42_);}
	.st55{fill:#662C1F;}
	.st56{clip-path:url(#SVGID_44_);}
	.st57{clip-path:url(#SVGID_46_);fill:#F6EEE1;}
	.st58{clip-path:url(#SVGID_48_);fill:#155942;}
	.st59{clip-path:url(#SVGID_48_);}
	.st60{fill:#3A3737;}
	.st61{clip-path:url(#SVGID_50_);fill:#155942;}
	.st62{clip-path:url(#SVGID_50_);}
	.st63{clip-path:url(#SVGID_52_);fill:#155942;}
	.st64{clip-path:url(#SVGID_52_);}
	.st65{clip-path:url(#SVGID_54_);fill:#155942;}
	.st66{clip-path:url(#SVGID_54_);}
	.st67{clip-path:url(#SVGID_56_);fill:#155942;}
	.st68{clip-path:url(#SVGID_56_);}
	.st69{clip-path:url(#SVGID_58_);fill:#155942;}
	.st70{clip-path:url(#SVGID_58_);}
	.st71{clip-path:url(#SVGID_60_);fill:#155942;}
	.st72{clip-path:url(#SVGID_60_);}
	.st73{clip-path:url(#SVGID_62_);fill:#155942;}
	.st74{clip-path:url(#SVGID_62_);}
	.st75{clip-path:url(#SVGID_64_);fill:#155942;}
	.st76{clip-path:url(#SVGID_64_);}
	.st77{clip-path:url(#SVGID_66_);fill:#155942;}
	.st78{clip-path:url(#SVGID_66_);}
	.st79{clip-path:url(#SVGID_70_);fill:#F6EEE1;}
	.st80{clip-path:url(#SVGID_70_);}
	.st81{clip-path:url(#SVGID_70_);fill:none;}
	.st82{clip-path:url(#SVGID_72_);fill:#FA9B12;}
	.st83{clip-path:url(#SVGID_72_);}
	.st84{fill:#FA9B12;stroke:#FA9B12;stroke-width:1.5039;stroke-miterlimit:10;}
	.st85{fill:none;}
	.st86{fill:none;stroke:#000000;stroke-width:30;stroke-linecap:round;stroke-linejoin:round;stroke-miterlimit:10;}
	.st87{clip-path:url(#SVGID_74_);}
	.st88{clip-path:url(#SVGID_76_);}
	.st89{clip-path:url(#SVGID_78_);}
	.st90{fill:none;stroke:#000000;stroke-width:1.799;stroke-miterlimit:10;}
	.st91{fill:#9B230B;}
	.st92{clip-path:url(#SVGID_80_);}
	.st93{clip-path:url(#SVGID_82_);}
	.st94{fill:#202020;}
	.st95{clip-path:url(#SVGID_84_);}
	.st96{clip-path:url(#SVGID_86_);}
	.st97{fill:#FBA62D;}
	.st98{clip-path:url(#SVGID_88_);fill:#FA9B12;}
	.st99{clip-path:url(#SVGID_88_);}
	.st100{clip-path:url(#SVGID_90_);fill:#FA9B12;}
	.st101{clip-path:url(#SVGID_90_);}
	.st102{clip-path:url(#SVGID_92_);fill:#FA9B12;}
	.st103{clip-path:url(#SVGID_92_);}
	.st104{clip-path:url(#SVGID_94_);fill:#BF3110;}
	.st105{clip-path:url(#SVGID_94_);fill:none;stroke:#FA9B12;stroke-width:0.6611;stroke-miterlimit:10;}
	.st106{clip-path:url(#SVGID_94_);}
	.st107{clip-path:url(#SVGID_96_);}
	.st108{clip-path:url(#SVGID_98_);fill:#FA9B12;}
	.st109{clip-path:url(#SVGID_98_);}
	.st110{fill:#C74B2E;}
	.st111{clip-path:url(#SVGID_100_);fill:#FA9B12;}
	.st112{clip-path:url(#SVGID_100_);}
	.st113{fill:#DACEB6;}
	.st114{fill:#DFD4BF;}
	.st115{clip-path:url(#SVGID_102_);fill:#155942;}
	.st116{clip-path:url(#SVGID_102_);}
	.st117{clip-path:url(#SVGID_104_);fill:#FA9B12;}
	.st118{clip-path:url(#SVGID_104_);}
	.st119{fill:#336E5A;}
	.st120{clip-path:url(#SVGID_106_);fill:#BF3110;}
	.st121{clip-path:url(#SVGID_106_);}
	.st122{fill:#FBA730;}
	.st123{clip-path:url(#SVGID_108_);fill:#FA9B12;}
	.st124{clip-path:url(#SVGID_108_);}
	.st125{fill:none;stroke:#FDDDAE;stroke-width:1.502;stroke-miterlimit:10;}
	.st126{clip-path:url(#SVGID_110_);fill:#BF3110;}
	.st127{clip-path:url(#SVGID_110_);}
	.st128{clip-path:url(#SVGID_112_);fill:#BF3110;}
	.st129{clip-path:url(#SVGID_112_);}
	.st130{clip-path:url(#SVGID_114_);fill:#FA9B12;}
	.st131{clip-path:url(#SVGID_114_);}
	.st132{clip-path:url(#SVGID_116_);}
	.st133{clip-path:url(#SVGID_118_);fill:#FA9B12;}
	.st134{clip-path:url(#SVGID_118_);}
	.st135{fill:#3F6B51;}
	.st136{clip-path:url(#SVGID_120_);fill:#962C18;}
	.st137{clip-path:url(#SVGID_120_);}
	.st138{fill:#DB8845;}
	.st139{fill:#F6EEE1;}
	.st140{clip-path:url(#SVGID_122_);fill:#155942;}
	.st141{clip-path:url(#SVGID_122_);}
	.st142{clip-path:url(#SVGID_122_);fill:#FA9B12;}
	.st143{fill:#213A31;}
	.st144{fill:#1D1D1D;}
	.st145{stroke:#000000;stroke-miterlimit:10;}
	.st146{fill:#F5EBDC;stroke:#F5EBDC;stroke-linecap:round;stroke-linejoin:round;stroke-miterlimit:10;}
	.st147{fill:#FA9B12;stroke:#FA9B12;stroke-miterlimit:10;}
	.st148{fill:none;stroke:#000000;stroke-miterlimit:10;stroke-dasharray:2.8813;}
	.st149{clip-path:url(#SVGID_124_);}
	.st150{clip-path:url(#SVGID_126_);}
	.st151{fill:#052116;}
	.st152{fill:#F7EDE1;stroke:#000000;stroke-width:1.5319;stroke-miterlimit:10;}
	.st153{clip-path:url(#SVGID_128_);}
	.st154{fill:none;stroke:#000000;stroke-width:1.1024;stroke-miterlimit:10;}
	.st155{clip-path:url(#SVGID_130_);fill:#FA9B12;}
	.st156{clip-path:url(#SVGID_130_);}
	.st157{fill:#A24432;}
	.st158{clip-path:url(#SVGID_132_);fill:#155942;}
	.st159{clip-path:url(#SVGID_132_);}
	.st160{clip-path:url(#SVGID_134_);fill:#962C18;}
	.st161{clip-path:url(#SVGID_134_);fill:#F6EEE1;}
	.st162{clip-path:url(#SVGID_134_);}
	.st163{clip-path:url(#SVGID_136_);fill:#962C18;}
	.st164{clip-path:url(#SVGID_136_);fill:#F6EEE1;}
	.st165{clip-path:url(#SVGID_136_);}
	.st166{clip-path:url(#SVGID_138_);fill:#FA9B12;}
	.st167{clip-path:url(#SVGID_138_);}
	.st168{enable-background:new    ;}
	.st169{clip-path:url(#XMLID_7_);}
	.st170{stroke:#000000;stroke-width:0.6589;stroke-miterlimit:10;}
	.st171{clip-path:url(#XMLID_8_);enable-background:new    ;}
	.st172{clip-path:url(#XMLID_9_);enable-background:new    ;}
	.st173{fill:#F5EBDC;stroke:#000000;stroke-width:0.6589;stroke-miterlimit:10;}
	.st174{fill:#F5EBDC;stroke:#000000;stroke-width:0.6589;stroke-linecap:round;stroke-linejoin:round;stroke-miterlimit:10;}
	.st175{clip-path:url(#XMLID_10_);}
	.st176{clip-path:url(#SVGID_140_);fill:#FA9B12;}
	.st177{clip-path:url(#SVGID_140_);}
	.st178{clip-path:url(#SVGID_142_);fill:#BF3110;}
	.st179{clip-path:url(#SVGID_142_);}
	.st180{clip-path:url(#SVGID_144_);fill:#FA9B12;}
	.st181{clip-path:url(#SVGID_144_);}
	.st182{clip-path:url(#SVGID_146_);}
	.st183{clip-path:url(#SVGID_148_);}
	.st184{clip-path:url(#SVGID_150_);}
	.st185{clip-path:url(#SVGID_152_);}
	.st186{clip-path:url(#SVGID_154_);}
	.st187{clip-path:url(#SVGID_156_);}
	.st188{clip-path:url(#SVGID_158_);fill:#F6EEE1;}
	.st189{clip-path:url(#SVGID_160_);fill:#F6EEE1;}
	.st190{clip-path:url(#SVGID_162_);fill:#F6EEE1;}
	.st191{clip-path:url(#SVGID_164_);fill:#F6EEE1;}
	.st192{clip-path:url(#SVGID_166_);fill:#F6EEE1;}
	.st193{clip-path:url(#SVGID_168_);fill:#F6EEE1;}
	.st194{clip-path:url(#SVGID_170_);fill:#F6EEE1;}
	.st195{clip-path:url(#SVGID_172_);fill:#155942;}
	.st196{clip-path:url(#SVGID_172_);}
	.st197{clip-path:url(#SVGID_174_);fill:#155942;}
	.st198{clip-path:url(#SVGID_174_);}
	.st199{clip-path:url(#SVGID_176_);fill:#155942;}
	.st200{clip-path:url(#SVGID_176_);}
	.st201{clip-path:url(#SVGID_178_);fill:#155942;}
	.st202{clip-path:url(#SVGID_178_);}
	.st203{clip-path:url(#SVGID_180_);fill:#155942;}
	.st204{clip-path:url(#SVGID_180_);}
	.st205{fill:none;stroke:#000000;stroke-width:2;stroke-miterlimit:10;stroke-dasharray:2.909;}
	.st206{fill:#F7EDE1;stroke:#F7EDE1;stroke-miterlimit:10;}
	.st207{fill:none;stroke:#000000;stroke-miterlimit:10;}
	.st208{fill:#F7EDE1;stroke:#000000;stroke-width:0.9848;stroke-miterlimit:10;}
	.st209{clip-path:url(#SVGID_182_);}
	.st210{fill:#F5EBDC;}
	.st211{fill:#F5EBDC;stroke:#000000;stroke-miterlimit:10;}
	.st212{fill:#F5EBDC;stroke:#000000;stroke-linecap:round;stroke-miterlimit:10;}
	.st213{clip-path:url(#SVGID_184_);}
	.st214{clip-path:url(#SVGID_186_);}
	.st215{fill:#C7492C;}
	.st216{fill:#F79812;}
	.st217{clip-path:url(#SVGID_188_);}
	.st218{fill:none;stroke:#000000;stroke-linecap:round;stroke-linejoin:round;stroke-miterlimit:10;}
	.st219{clip-path:url(#SVGID_190_);}
	.st220{clip-path:url(#SVGID_192_);}
	.st221{clip-path:url(#SVGID_194_);}
	.st222{clip-path:url(#SVGID_196_);}
	.st223{clip-path:url(#SVGID_198_);}
	.st224{clip-path:url(#SVGID_200_);}
	.st225{clip-path:url(#SVGID_202_);}
	.st226{clip-path:url(#SVGID_204_);}
	.st227{clip-path:url(#SVGID_206_);fill:none;stroke:#000000;stroke-width:1.2276;stroke-miterlimit:10;}
	.st228{clip-path:url(#SVGID_206_);fill:#9B230B;}
	.st229{clip-path:url(#SVGID_206_);fill:none;stroke:#F7EDE1;stroke-width:1.2276;stroke-miterlimit:10;}
	.st230{clip-path:url(#SVGID_206_);}
	.st231{clip-path:url(#SVGID_208_);fill:none;stroke:#000000;stroke-width:1.2276;stroke-miterlimit:10;}
	.st232{clip-path:url(#SVGID_208_);fill:#9B230B;}
	.st233{clip-path:url(#SVGID_208_);fill:none;stroke:#F7EDE1;stroke-width:1.2276;stroke-miterlimit:10;}
	.st234{clip-path:url(#SVGID_208_);}
	.st235{clip-path:url(#SVGID_210_);}
	.st236{opacity:0.36;fill:#9B230B;}
	.st237{opacity:0.36;clip-path:url(#SVGID_212_);}
	.st238{opacity:0.88;clip-path:url(#SVGID_212_);}
	.st239{clip-path:url(#SVGID_212_);fill:none;stroke:#000000;stroke-width:2;stroke-miterlimit:10;}
	.st240{opacity:0.36;clip-path:url(#SVGID_214_);}
	.st241{opacity:0.88;clip-path:url(#SVGID_214_);}
	.st242{clip-path:url(#SVGID_214_);fill:none;stroke:#000000;stroke-width:2;stroke-miterlimit:10;}
	.st243{clip-path:url(#SVGID_216_);}
	.st244{clip-path:url(#SVGID_218_);}
	.st245{clip-path:url(#SVGID_222_);}
	.st246{fill:none;stroke:#000000;stroke-width:2.0453;stroke-miterlimit:10;}
	.st247{clip-path:url(#SVGID_224_);fill:#155942;}
	.st248{clip-path:url(#SVGID_224_);}
	.st249{clip-path:url(#SVGID_226_);fill:#DACEB6;}
	.st250{clip-path:url(#SVGID_226_);}
	.st251{fill:#177045;}
	.st252{clip-path:url(#SVGID_226_);fill:none;}
	.st253{clip-path:url(#SVGID_228_);}
	.st254{clip-path:url(#SVGID_228_);fill:#DACEB6;}
	.st255{clip-path:url(#SVGID_230_);}
	.st256{clip-path:url(#SVGID_230_);fill:#DACEB6;}
	.st257{clip-path:url(#SVGID_232_);fill:#BF3110;}
	.st258{clip-path:url(#SVGID_232_);}
	.st259{fill:#853326;}
	.st260{clip-path:url(#SVGID_234_);fill:#FA9B12;}
	.st261{clip-path:url(#SVGID_234_);}
	.st262{clip-path:url(#SVGID_236_);}
	.st263{fill:#FA9B12;stroke:#000000;stroke-width:1.1958;stroke-miterlimit:10;}
	.st264{fill:none;stroke:#000000;stroke-width:6.431;stroke-miterlimit:10;}
	.st265{clip-path:url(#SVGID_238_);fill:#F7EDE1;}
	.st266{clip-path:url(#SVGID_238_);}
	.st267{clip-path:url(#SVGID_240_);fill:#F7EDE1;}
	.st268{clip-path:url(#SVGID_240_);}
	.st269{clip-path:url(#SVGID_242_);fill:#F7EDE1;}
	.st270{clip-path:url(#SVGID_242_);}
	.st271{clip-path:url(#SVGID_244_);fill:#F7EDE1;}
	.st272{clip-path:url(#SVGID_244_);}
	.st273{fill:#BC3110;}
</style>
<g id="Layer_1">
</g>
<g>
	<g>
		<g>
			<g>
				<g>
					<g>
						<g>
							<g>
								<path d="M40.13,48.62c0-2.19-1.99-3.98-4.42-3.98h-5.64c-2.43,0-4.42,1.79-4.42,3.98v15.31c0,2.19-1.99,3.98-4.42,3.98H4.42
									C1.99,67.91,0,66.12,0,63.93V5.27c0-2.19,1.99-3.98,4.42-3.98h16.8c2.43,0,4.42,1.79,4.42,3.98v16.6
									c0,2.19,1.99,3.98,4.42,3.98h5.64c2.43,0,4.42-1.79,4.42-3.98V5.27c0-2.19,1.99-3.98,4.42-3.98h16.8
									c2.43,0,4.42,1.79,4.42,3.98v58.66c0,2.19-1.99,3.98-4.42,3.98h-16.8c-2.43,0-4.42-1.79-4.42-3.98V48.62z"/>
							</g>
						</g>
						<g>
							<g>
								<path d="M108.44,69.2c-26.09,0-35.37-12.23-35.37-34.7S82.13,0,108.33,0c26.31,0,35.26,12.03,35.26,34.6
									C143.59,56.97,134.53,69.2,108.44,69.2z M100.81,46.73c1.22,2.49,3.76,3.78,7.63,3.78c3.76,0,6.3-1.19,7.52-3.68
									c1.22-2.49,1.77-6.56,1.77-12.33c0-5.67-0.55-9.74-1.77-12.23c-1.11-2.39-3.65-3.58-7.52-3.58c-3.87,0-6.41,1.19-7.63,3.68
									c-1.22,2.49-1.88,6.56-1.88,12.23C98.93,40.27,99.6,44.24,100.81,46.73z"/>
							</g>
						</g>
						<g>
							<g>
								<path d="M155.53,67.91c-2.54,0-4.64-1.89-4.64-4.18V5.47c0-2.29,2.1-4.18,4.64-4.18h16.36c2.54,0,4.64,1.89,4.64,4.18v39.47
									c0,2.29,2.1,4.18,4.64,4.18h14.81c2.54,0,4.64,1.89,4.64,4.18v10.44c0,2.29-2.1,4.18-4.64,4.18H155.53z"/>
							</g>
						</g>
						<g>
							<g>
								<path d="M214.36,67.67c-2.54,0-4.64-1.89-4.64-4.18V5.23c0-2.29,2.1-4.18,4.64-4.18h16.36c2.54,0,4.64,1.89,4.64,4.18V44.7
									c0,2.29,2.1,4.18,4.64,4.18h14.81c2.54,0,4.64,1.89,4.64,4.18v10.44c0,2.29-2.1,4.18-4.64,4.18H214.36z"/>
							</g>
						</g>
						<g>
							<g>
								<path d="M283.01,4.57c0.44-1.89,2.32-3.28,4.53-3.28h31.28c2.21,0,4.09,1.39,4.64,3.28l14.48,58.16
									c0.66,2.68-1.55,5.17-4.53,5.17h-16.36c-2.1,0-3.98-1.29-4.53-3.18l-0.33-1.29c-0.55-1.89-2.43-3.18-4.53-3.18h-9.4
									c-2.32,0-4.2,1.39-4.64,3.38l-0.22,0.9c-0.44,1.99-2.32,3.38-4.53,3.38h-15.59c-2.98,0-5.2-2.49-4.53-5.07L283.01,4.57z
									 M301.92,19.39l-3.32,18.39c-0.44,2.59,1.77,4.87,4.64,4.87c2.87,0,5.08-2.29,4.64-4.87l-3.21-18.39H301.92z"/>
							</g>
						</g>
					</g>
				</g>
			</g>
		</g>
		<path class="st273" d="M110.17,10.67l2.47,7.76c0.39,1.23,1.82,1.76,2.9,1.07l6.81-4.33c1.61-1.02,3.57,0.64,2.86,2.43l-3.03,7.55
			c-0.48,1.2,0.28,2.54,1.55,2.71l7.97,1.12c1.88,0.26,2.33,2.82,0.65,3.72l-7.11,3.81c-1.13,0.61-1.39,2.13-0.54,3.09l5.4,6.05
			c1.28,1.43,0,3.68-1.86,3.27l-7.86-1.71c-1.25-0.27-2.42,0.72-2.37,2.01l0.3,8.15c0.07,1.93-2.34,2.81-3.5,1.29l-4.94-6.43
			c-0.78-1.02-2.31-1.02-3.09,0l-4.94,6.43c-1.17,1.52-3.57,0.63-3.5-1.29l0.3-8.15c0.05-1.29-1.12-2.29-2.37-2.01l-7.86,1.71
			c-1.86,0.4-3.14-1.84-1.86-3.27l5.4-6.05c0.86-0.96,0.59-2.48-0.54-3.09l-7.11-3.81c-1.68-0.9-1.24-3.46,0.65-3.72l7.97-1.12
			c1.26-0.18,2.03-1.51,1.55-2.71L91.4,17.6c-0.72-1.78,1.25-3.45,2.86-2.43l6.81,4.33c1.08,0.69,2.51,0.16,2.9-1.07l2.47-7.76
			C107.03,8.84,109.59,8.84,110.17,10.67z"/>
	</g>
</g>
</svg>
