<?xml version="1.0" encoding="utf-8"?>
<!-- Generator: Adobe Illustrator 25.0.0, SVG Export Plug-In . SVG Version: 6.00 Build 0)  -->
<svg version="1.1" id="Layer_2" xmlns="http://www.w3.org/2000/svg" xmlns:xlink="http://www.w3.org/1999/xlink" x="0px" y="0px"
	 viewBox="0 0 68.4 69.38" style="enable-background:new 0 0 68.4 69.38;" xml:space="preserve">
<style type="text/css">
	.st0{fill:#F7EDE1;}
	.st1{fill:#FA9B12;}
	.st2{fill:#155942;}
	.st3{fill:#BF3110;}
	.st4{fill:#155942;stroke:#000000;stroke-width:2;stroke-miterlimit:10;stroke-dasharray:2.909;}
	.st5{fill:none;stroke:#000000;stroke-width:1.256;stroke-miterlimit:10;}
	.st6{clip-path:url(#SVGID_2_);}
	.st7{clip-path:url(#SVGID_4_);fill:#FA9B12;}
	.st8{clip-path:url(#SVGID_4_);}
	.st9{fill:#F7F0E5;}
	.st10{clip-path:url(#SVGID_6_);fill:#FA9B12;}
	.st11{clip-path:url(#SVGID_6_);}
	.st12{clip-path:url(#SVGID_8_);fill:#FA9B12;}
	.st13{clip-path:url(#SVGID_8_);}
	.st14{clip-path:url(#SVGID_10_);fill:#FA9B12;}
	.st15{clip-path:url(#SVGID_10_);}
	.st16{clip-path:url(#SVGID_12_);fill:#FA9B12;}
	.st17{clip-path:url(#SVGID_12_);}
	.st18{fill:#1E1E1E;}
	.st19{clip-path:url(#SVGID_14_);fill:#FA9B12;}
	.st20{clip-path:url(#SVGID_14_);}
	.st21{clip-path:url(#SVGID_16_);fill:#FA9B12;}
	.st22{clip-path:url(#SVGID_16_);}
	.st23{clip-path:url(#SVGID_18_);fill:#FA9B12;}
	.st24{clip-path:url(#SVGID_18_);}
	.st25{clip-path:url(#SVGID_20_);}
	.st26{clip-path:url(#SVGID_20_);fill:#FA9B12;}
	.st27{clip-path:url(#SVGID_22_);fill:#FA9B12;}
	.st28{clip-path:url(#SVGID_22_);}
	.st29{fill:#E5880C;}
	.st30{clip-path:url(#SVGID_24_);fill:#F6EEE1;}
	.st31{clip-path:url(#SVGID_24_);}
	.st32{fill:#306C58;}
	.st33{clip-path:url(#SVGID_24_);fill:none;}
	.st34{clip-path:url(#SVGID_26_);fill:#FA9B12;}
	.st35{clip-path:url(#SVGID_26_);}
	.st36{fill:#A34433;}
	.st37{clip-path:url(#SVGID_28_);}
	.st38{clip-path:url(#SVGID_30_);fill:#155942;}
	.st39{clip-path:url(#SVGID_30_);}
	.st40{fill:none;stroke:#155942;stroke-width:4;stroke-miterlimit:10;}
	.st41{fill:#F7EDE1;stroke:#F7EDE1;stroke-width:10;stroke-miterlimit:10;}
	.st42{fill:#F7EDE1;stroke:#F7EDE1;stroke-width:2;stroke-miterlimit:10;}
	.st43{fill:none;stroke:#F7EDE1;stroke-width:2;stroke-miterlimit:10;}
	.st44{clip-path:url(#SVGID_32_);fill:#BF3110;}
	.st45{clip-path:url(#SVGID_32_);}
	.st46{fill:#6C1D17;}
	.st47{fill:#892E25;}
	.st48{clip-path:url(#SVGID_34_);}
	.st49{clip-path:url(#SVGID_36_);fill:#F6EEE1;}
	.st50{fill:#962C18;}
	.st51{clip-path:url(#SVGID_38_);}
	.st52{clip-path:url(#SVGID_40_);fill:#F6EEE1;}
	.st53{clip-path:url(#SVGID_42_);fill:#962C18;}
	.st54{clip-path:url(#SVGID_42_);}
	.st55{fill:#662C1F;}
	.st56{clip-path:url(#SVGID_44_);}
	.st57{clip-path:url(#SVGID_46_);fill:#F6EEE1;}
	.st58{clip-path:url(#SVGID_48_);fill:#155942;}
	.st59{clip-path:url(#SVGID_48_);}
	.st60{fill:#3A3737;}
	.st61{clip-path:url(#SVGID_50_);fill:#155942;}
	.st62{clip-path:url(#SVGID_50_);}
	.st63{clip-path:url(#SVGID_52_);fill:#155942;}
	.st64{clip-path:url(#SVGID_52_);}
	.st65{clip-path:url(#SVGID_54_);fill:#155942;}
	.st66{clip-path:url(#SVGID_54_);}
	.st67{clip-path:url(#SVGID_56_);fill:#155942;}
	.st68{clip-path:url(#SVGID_56_);}
	.st69{clip-path:url(#SVGID_58_);fill:#155942;}
	.st70{clip-path:url(#SVGID_58_);}
	.st71{clip-path:url(#SVGID_60_);fill:#155942;}
	.st72{clip-path:url(#SVGID_60_);}
	.st73{clip-path:url(#SVGID_62_);fill:#155942;}
	.st74{clip-path:url(#SVGID_62_);}
	.st75{clip-path:url(#SVGID_64_);fill:#155942;}
	.st76{clip-path:url(#SVGID_64_);}
	.st77{clip-path:url(#SVGID_66_);fill:#155942;}
	.st78{clip-path:url(#SVGID_66_);}
	.st79{clip-path:url(#SVGID_70_);fill:#F6EEE1;}
	.st80{clip-path:url(#SVGID_70_);}
	.st81{clip-path:url(#SVGID_70_);fill:none;}
	.st82{clip-path:url(#SVGID_72_);fill:#FA9B12;}
	.st83{clip-path:url(#SVGID_72_);}
	.st84{fill:#FA9B12;stroke:#FA9B12;stroke-width:1.5039;stroke-miterlimit:10;}
	.st85{fill:none;}
	.st86{fill:none;stroke:#000000;stroke-width:30;stroke-linecap:round;stroke-linejoin:round;stroke-miterlimit:10;}
	.st87{clip-path:url(#SVGID_74_);}
	.st88{clip-path:url(#SVGID_76_);}
	.st89{clip-path:url(#SVGID_78_);}
	.st90{fill:none;stroke:#000000;stroke-width:1.799;stroke-miterlimit:10;}
	.st91{fill:#9B230B;}
	.st92{clip-path:url(#SVGID_80_);}
	.st93{clip-path:url(#SVGID_82_);}
	.st94{fill:#202020;}
	.st95{clip-path:url(#SVGID_84_);}
	.st96{clip-path:url(#SVGID_86_);}
	.st97{fill:#FBA62D;}
	.st98{clip-path:url(#SVGID_88_);fill:#FA9B12;}
	.st99{clip-path:url(#SVGID_88_);}
	.st100{clip-path:url(#SVGID_90_);fill:#FA9B12;}
	.st101{clip-path:url(#SVGID_90_);}
	.st102{clip-path:url(#SVGID_92_);fill:#FA9B12;}
	.st103{clip-path:url(#SVGID_92_);}
	.st104{clip-path:url(#SVGID_94_);fill:#BF3110;}
	.st105{clip-path:url(#SVGID_94_);fill:none;stroke:#FA9B12;stroke-width:0.6611;stroke-miterlimit:10;}
	.st106{clip-path:url(#SVGID_94_);}
	.st107{clip-path:url(#SVGID_96_);}
	.st108{clip-path:url(#SVGID_98_);fill:#FA9B12;}
	.st109{clip-path:url(#SVGID_98_);}
	.st110{fill:#C74B2E;}
	.st111{clip-path:url(#SVGID_100_);fill:#FA9B12;}
	.st112{clip-path:url(#SVGID_100_);}
	.st113{fill:#DACEB6;}
	.st114{fill:#DFD4BF;}
	.st115{clip-path:url(#SVGID_102_);fill:#155942;}
	.st116{clip-path:url(#SVGID_102_);}
	.st117{clip-path:url(#SVGID_104_);fill:#FA9B12;}
	.st118{clip-path:url(#SVGID_104_);}
	.st119{fill:#336E5A;}
	.st120{clip-path:url(#SVGID_106_);fill:#BF3110;}
	.st121{clip-path:url(#SVGID_106_);}
	.st122{fill:#FBA730;}
	.st123{clip-path:url(#SVGID_108_);fill:#FA9B12;}
	.st124{clip-path:url(#SVGID_108_);}
	.st125{fill:none;stroke:#FDDDAE;stroke-width:1.502;stroke-miterlimit:10;}
	.st126{clip-path:url(#SVGID_110_);fill:#BF3110;}
	.st127{clip-path:url(#SVGID_110_);}
	.st128{clip-path:url(#SVGID_112_);fill:#BF3110;}
	.st129{clip-path:url(#SVGID_112_);}
	.st130{clip-path:url(#SVGID_114_);fill:#FA9B12;}
	.st131{clip-path:url(#SVGID_114_);}
	.st132{clip-path:url(#SVGID_116_);}
	.st133{clip-path:url(#SVGID_118_);fill:#FA9B12;}
	.st134{clip-path:url(#SVGID_118_);}
	.st135{fill:#3F6B51;}
	.st136{clip-path:url(#SVGID_120_);fill:#962C18;}
	.st137{clip-path:url(#SVGID_120_);}
	.st138{fill:#DB8845;}
	.st139{fill:#F6EEE1;}
	.st140{clip-path:url(#SVGID_122_);fill:#155942;}
	.st141{clip-path:url(#SVGID_122_);}
	.st142{clip-path:url(#SVGID_122_);fill:#FA9B12;}
	.st143{fill:#213A31;}
	.st144{fill:#1D1D1D;}
	.st145{stroke:#000000;stroke-miterlimit:10;}
	.st146{fill:#F5EBDC;stroke:#F5EBDC;stroke-linecap:round;stroke-linejoin:round;stroke-miterlimit:10;}
	.st147{fill:#FA9B12;stroke:#FA9B12;stroke-miterlimit:10;}
	.st148{fill:none;stroke:#000000;stroke-miterlimit:10;stroke-dasharray:2.8813;}
	.st149{clip-path:url(#SVGID_124_);}
	.st150{clip-path:url(#SVGID_126_);}
	.st151{fill:#052116;}
	.st152{fill:#F7EDE1;stroke:#000000;stroke-width:1.5319;stroke-miterlimit:10;}
	.st153{clip-path:url(#SVGID_128_);}
	.st154{fill:none;stroke:#000000;stroke-width:1.1024;stroke-miterlimit:10;}
	.st155{clip-path:url(#SVGID_130_);fill:#FA9B12;}
	.st156{clip-path:url(#SVGID_130_);}
	.st157{fill:#A24432;}
	.st158{clip-path:url(#SVGID_132_);fill:#155942;}
	.st159{clip-path:url(#SVGID_132_);}
	.st160{clip-path:url(#SVGID_134_);fill:#962C18;}
	.st161{clip-path:url(#SVGID_134_);fill:#F6EEE1;}
	.st162{clip-path:url(#SVGID_134_);}
	.st163{clip-path:url(#SVGID_136_);fill:#962C18;}
	.st164{clip-path:url(#SVGID_136_);fill:#F6EEE1;}
	.st165{clip-path:url(#SVGID_136_);}
	.st166{clip-path:url(#SVGID_138_);fill:#FA9B12;}
	.st167{clip-path:url(#SVGID_138_);}
	.st168{enable-background:new    ;}
	.st169{clip-path:url(#XMLID_7_);}
	.st170{stroke:#000000;stroke-width:0.6589;stroke-miterlimit:10;}
	.st171{clip-path:url(#XMLID_8_);enable-background:new    ;}
	.st172{clip-path:url(#XMLID_9_);enable-background:new    ;}
	.st173{fill:#F5EBDC;stroke:#000000;stroke-width:0.6589;stroke-miterlimit:10;}
	.st174{fill:#F5EBDC;stroke:#000000;stroke-width:0.6589;stroke-linecap:round;stroke-linejoin:round;stroke-miterlimit:10;}
	.st175{clip-path:url(#XMLID_10_);}
	.st176{clip-path:url(#SVGID_140_);fill:#FA9B12;}
	.st177{clip-path:url(#SVGID_140_);}
	.st178{clip-path:url(#SVGID_142_);fill:#BF3110;}
	.st179{clip-path:url(#SVGID_142_);}
	.st180{clip-path:url(#SVGID_144_);fill:#FA9B12;}
	.st181{clip-path:url(#SVGID_144_);}
	.st182{clip-path:url(#SVGID_146_);}
	.st183{clip-path:url(#SVGID_148_);}
	.st184{clip-path:url(#SVGID_150_);}
	.st185{clip-path:url(#SVGID_152_);}
	.st186{clip-path:url(#SVGID_154_);}
	.st187{clip-path:url(#SVGID_156_);}
	.st188{clip-path:url(#SVGID_158_);fill:#F6EEE1;}
	.st189{clip-path:url(#SVGID_160_);fill:#F6EEE1;}
	.st190{clip-path:url(#SVGID_162_);fill:#F6EEE1;}
	.st191{clip-path:url(#SVGID_164_);fill:#F6EEE1;}
	.st192{clip-path:url(#SVGID_166_);fill:#F6EEE1;}
	.st193{clip-path:url(#SVGID_168_);fill:#F6EEE1;}
	.st194{clip-path:url(#SVGID_170_);fill:#F6EEE1;}
	.st195{clip-path:url(#SVGID_172_);fill:#155942;}
	.st196{clip-path:url(#SVGID_172_);}
	.st197{clip-path:url(#SVGID_174_);fill:#155942;}
	.st198{clip-path:url(#SVGID_174_);}
	.st199{clip-path:url(#SVGID_176_);fill:#155942;}
	.st200{clip-path:url(#SVGID_176_);}
	.st201{clip-path:url(#SVGID_178_);fill:#155942;}
	.st202{clip-path:url(#SVGID_178_);}
	.st203{clip-path:url(#SVGID_180_);fill:#155942;}
	.st204{clip-path:url(#SVGID_180_);}
	.st205{fill:none;stroke:#000000;stroke-width:2;stroke-miterlimit:10;stroke-dasharray:2.909;}
	.st206{fill:#F7EDE1;stroke:#F7EDE1;stroke-miterlimit:10;}
	.st207{fill:none;stroke:#000000;stroke-miterlimit:10;}
	.st208{fill:#F7EDE1;stroke:#000000;stroke-width:0.9848;stroke-miterlimit:10;}
	.st209{clip-path:url(#SVGID_182_);}
	.st210{fill:#F5EBDC;}
	.st211{fill:#F5EBDC;stroke:#000000;stroke-miterlimit:10;}
	.st212{fill:#F5EBDC;stroke:#000000;stroke-linecap:round;stroke-miterlimit:10;}
	.st213{clip-path:url(#SVGID_184_);}
	.st214{clip-path:url(#SVGID_186_);}
	.st215{fill:#C7492C;}
	.st216{fill:#F79812;}
	.st217{clip-path:url(#SVGID_188_);}
	.st218{fill:none;stroke:#000000;stroke-linecap:round;stroke-linejoin:round;stroke-miterlimit:10;}
	.st219{clip-path:url(#SVGID_190_);}
	.st220{clip-path:url(#SVGID_192_);}
	.st221{clip-path:url(#SVGID_194_);}
	.st222{clip-path:url(#SVGID_196_);}
	.st223{clip-path:url(#SVGID_198_);}
	.st224{clip-path:url(#SVGID_200_);}
	.st225{clip-path:url(#SVGID_202_);}
	.st226{clip-path:url(#SVGID_204_);}
	.st227{clip-path:url(#SVGID_206_);fill:none;stroke:#000000;stroke-width:1.2276;stroke-miterlimit:10;}
	.st228{clip-path:url(#SVGID_206_);fill:#9B230B;}
	.st229{clip-path:url(#SVGID_206_);fill:none;stroke:#F7EDE1;stroke-width:1.2276;stroke-miterlimit:10;}
	.st230{clip-path:url(#SVGID_206_);}
	.st231{clip-path:url(#SVGID_208_);fill:none;stroke:#000000;stroke-width:1.2276;stroke-miterlimit:10;}
	.st232{clip-path:url(#SVGID_208_);fill:#9B230B;}
	.st233{clip-path:url(#SVGID_208_);fill:none;stroke:#F7EDE1;stroke-width:1.2276;stroke-miterlimit:10;}
	.st234{clip-path:url(#SVGID_208_);}
	.st235{clip-path:url(#SVGID_210_);}
	.st236{opacity:0.36;fill:#9B230B;}
	.st237{opacity:0.36;clip-path:url(#SVGID_212_);}
	.st238{opacity:0.88;clip-path:url(#SVGID_212_);}
	.st239{clip-path:url(#SVGID_212_);fill:none;stroke:#000000;stroke-width:2;stroke-miterlimit:10;}
	.st240{opacity:0.36;clip-path:url(#SVGID_214_);}
	.st241{opacity:0.88;clip-path:url(#SVGID_214_);}
	.st242{clip-path:url(#SVGID_214_);fill:none;stroke:#000000;stroke-width:2;stroke-miterlimit:10;}
	.st243{clip-path:url(#SVGID_216_);}
	.st244{clip-path:url(#SVGID_218_);}
	.st245{clip-path:url(#SVGID_222_);}
	.st246{fill:none;stroke:#000000;stroke-width:2.0453;stroke-miterlimit:10;}
	.st247{clip-path:url(#SVGID_224_);fill:#155942;}
	.st248{clip-path:url(#SVGID_224_);}
	.st249{clip-path:url(#SVGID_226_);fill:#DACEB6;}
	.st250{clip-path:url(#SVGID_226_);}
	.st251{fill:#177045;}
	.st252{clip-path:url(#SVGID_226_);fill:none;}
	.st253{clip-path:url(#SVGID_228_);}
	.st254{clip-path:url(#SVGID_228_);fill:#DACEB6;}
	.st255{clip-path:url(#SVGID_230_);}
	.st256{clip-path:url(#SVGID_230_);fill:#DACEB6;}
	.st257{clip-path:url(#SVGID_232_);fill:#BF3110;}
	.st258{clip-path:url(#SVGID_232_);}
	.st259{fill:#853326;}
	.st260{clip-path:url(#SVGID_234_);fill:#FA9B12;}
	.st261{clip-path:url(#SVGID_234_);}
	.st262{clip-path:url(#SVGID_236_);}
	.st263{fill:#FA9B12;stroke:#000000;stroke-width:1.1958;stroke-miterlimit:10;}
	.st264{fill:none;stroke:#000000;stroke-width:6.431;stroke-miterlimit:10;}
	.st265{clip-path:url(#SVGID_238_);fill:#F7EDE1;}
	.st266{clip-path:url(#SVGID_238_);}
	.st267{clip-path:url(#SVGID_240_);fill:#F7EDE1;}
	.st268{clip-path:url(#SVGID_240_);}
	.st269{clip-path:url(#SVGID_242_);fill:#F7EDE1;}
	.st270{clip-path:url(#SVGID_242_);}
	.st271{clip-path:url(#SVGID_244_);fill:#F7EDE1;}
	.st272{clip-path:url(#SVGID_244_);}
	.st273{fill:#BC3110;}
</style>
<g id="Layer_1">
</g>
<g id="g9SHLx_1_">
	<g>
		<path class="st216" d="M34.18,69.35c-0.83,0-1.67,0.04-2.5-0.01c-1.93-0.11-3.21-1.47-3.23-3.41c-0.02-1.33-0.01-2.66,0-3.99
			c0-0.35-0.1-0.57-0.39-0.79c-0.73-0.56-1.12-1.31-1.13-2.25c-0.06-5-1.74-9.4-4.94-13.22c-2.02-2.41-3.38-5.1-3.9-8.22
			c-1.25-7.51,3.14-15.08,10.31-17.72c9.19-3.38,19.06,1.65,21.57,11.11c1.43,5.4,0.18,10.3-3.38,14.59
			c-3.22,3.87-5.05,8.25-5.1,13.33c-0.01,0.99-0.43,1.79-1.19,2.43c-0.18,0.15-0.31,0.45-0.32,0.68c-0.03,1.31-0.01,2.62-0.02,3.93
			c-0.02,2.1-1.24,3.42-3.34,3.56c-0.81,0.05-1.63,0.01-2.44,0.01C34.18,69.36,34.18,69.36,34.18,69.35z M37.76,61.82
			c-2.39,0-4.73,0-7.11,0c0,1.46-0.02,2.87,0.01,4.27c0.01,0.64,0.51,1.08,1.18,1.09c1.59,0.01,3.18,0.01,4.76,0
			c0.6,0,1.13-0.41,1.15-1C37.79,64.74,37.76,63.3,37.76,61.82z"/>
		<path class="st216" d="M62.86,35.3c-1.33,0-2.66,0.01-3.99,0c-0.97-0.01-1.53-0.49-1.53-1.3c0-0.8,0.58-1.31,1.54-1.31
			c2.66-0.01,5.33-0.01,7.99,0c0.94,0,1.54,0.55,1.53,1.32c-0.01,0.81-0.57,1.28-1.54,1.29C65.53,35.3,64.19,35.3,62.86,35.3
			C62.86,35.3,62.86,35.3,62.86,35.3z"/>
		<path class="st216" d="M5.47,35.29c-1.33,0-2.66,0.01-3.98,0c-0.93,0-1.48-0.48-1.49-1.26c-0.01-0.81,0.56-1.35,1.49-1.35
			c2.7-0.01,5.41-0.01,8.11,0c0.88,0,1.47,0.56,1.47,1.31c0,0.75-0.59,1.28-1.48,1.29C8.22,35.3,6.85,35.29,5.47,35.29
			C5.47,35.29,5.47,35.29,5.47,35.29z"/>
		<path class="st216" d="M58.95,10.83c-0.28,0.47-0.41,0.84-0.66,1.09c-1.9,1.92-3.82,3.83-5.75,5.72
			c-0.62,0.61-1.43,0.64-1.97,0.11c-0.54-0.53-0.52-1.33,0.1-1.95c1.93-1.93,3.87-3.85,5.8-5.78c0.46-0.46,1.03-0.6,1.55-0.29
			C58.39,9.97,58.63,10.44,58.95,10.83z"/>
		<path class="st216" d="M51.41,49.71c0.46,0.26,0.81,0.38,1.05,0.61c1.95,1.91,3.88,3.83,5.81,5.76c0.63,0.63,0.66,1.4,0.12,1.95
			c-0.54,0.55-1.33,0.53-1.96-0.09c-1.94-1.91-3.87-3.84-5.81-5.77c-0.43-0.43-0.62-0.98-0.32-1.48
			C50.54,50.29,51.02,50.05,51.41,49.71z"/>
		<path class="st216" d="M9.46,10.85c0.33-0.41,0.55-0.88,0.92-1.11c0.53-0.33,1.1-0.16,1.55,0.28c1.15,1.13,2.29,2.27,3.44,3.4
			c0.79,0.79,1.58,1.57,2.36,2.37c0.61,0.62,0.64,1.44,0.1,1.96c-0.55,0.53-1.35,0.49-1.97-0.11c-1.92-1.9-3.84-3.81-5.75-5.73
			C9.88,11.66,9.74,11.31,9.46,10.85z"/>
		<path class="st216" d="M9.55,57.05c0.18-0.32,0.3-0.69,0.54-0.94c1.92-1.94,3.85-3.86,5.8-5.78c0.61-0.6,1.43-0.6,1.97-0.06
			c0.52,0.53,0.51,1.31-0.09,1.9c-1.92,1.93-3.86,3.85-5.8,5.77c-0.45,0.44-0.98,0.58-1.57,0.34C9.89,58.09,9.65,57.67,9.55,57.05z"
			/>
		<path class="st216" d="M35.51,5.52c0,1.33,0,2.66,0,3.99c0,0.97-0.48,1.49-1.33,1.48c-0.83-0.01-1.26-0.5-1.26-1.45
			c0-2.66,0-5.32,0-7.98c0-0.97,0.48-1.54,1.27-1.55c0.8-0.01,1.31,0.61,1.32,1.6C35.51,2.91,35.51,4.21,35.51,5.52z"/>
	</g>
</g>
</svg>
