<svg
    version="1.1"
    xmlns="http://www.w3.org/2000/svg"
    viewBox="0 0 66.000000 68.000000"
    preserveAspectRatio="xMidYMid meet"
    style="fill: rgb(250, 154, 17); width: 100%"
>
    <g
    transform="translate(0.000000,68.000000) scale(0.100000,-0.100000)"
    stroke="none"
    >
    <path
        d="M295 618 c-10 -35 -22 -67 -27 -72 -5 -6 -21 0 -40 14 -18 13 -45 33 -61 44 -20 15 -30 17 -39 8 -8 -8 -6 -25 10 -67 33 -84 33 -84 -55 -87 -47 -2 -78 -7 -80 -15 -2 -6 23 -30 56 -53 34 -22 61 -44 61 -48 0 -5 -27 -27 -61 -51 -33 -23 -58 -48 -56 -54 2 -8 33 -13 80 -15 52 -2 77 -7 77 -15 0 -7 -9 -36 -21 -66 -19 -52 -20 -81 0 -81 5 0 32 18 61 41 28 22 57 38 64 36 7 -3 21 -35 30 -72 24 -85 42 -84 70 4 12 36 26 66 32 68 6 2 34 -14 62 -37 78 -61 92 -53 62 35 -30 87 -31 85 55 85 66 0 75 2 75 19 0 11 -21 32 -55 55 -30 20 -55 40 -55 46 0 5 25 26 55 47 31 21 55 46 55 56 0 15 -10 17 -75 17 -87 0 -88 2 -55 88 32 85 16 92 -66 31 -30 -23 -58 -39 -62 -35 -4 4 -16 35 -28 69 -28 83 -46 85 -69 5z"
    ></path>
    </g>
</svg>